HIERARCHY
ROOT Hips
{
	OFFSET 0.000000 0.000000 0.000000
	CHANNELS 6 Xposition Yposition Zposition Zrotation Yrotation Xrotation 
	JOINT LHipJoint
	{
		OFFSET 0.000000 0.000000 0.000000
		CHANNELS 3 Zrotation Yrotation Xrotation
		JOINT LeftUpLeg
		{
			OFFSET 1.363060 -1.794630 0.839290
			CHANNELS 3 Zrotation Yrotation Xrotation
			JOINT LeftLeg
			{
				OFFSET 2.448110 -6.726130 0.000000
				CHANNELS 3 Zrotation Yrotation Xrotation
				JOINT LeftFoot
				{
					OFFSET 2.562200 -7.039590 0.000000
					CHANNELS 3 Zrotation Yrotation Xrotation
					JOINT LeftToeBase
					{
						OFFSET 0.157640 -0.433110 2.322550
						CHANNELS 3 Zrotation Yrotation Xrotation
						End Site
						{
							OFFSET 0.000000 0.000000 0.000000
						}
					}
				}
			}
		}
	}
	JOINT RHipJoint
	{
		OFFSET 0.000000 0.000000 0.000000
		CHANNELS 3 Zrotation Yrotation Xrotation
		JOINT RightUpLeg
		{
			OFFSET -1.305520 -1.794630 0.839290
			CHANNELS 3 Zrotation Yrotation Xrotation
			JOINT RightLeg
			{
				OFFSET -2.542530 -6.985550 0.000000
				CHANNELS 3 Zrotation Yrotation Xrotation
				JOINT RightFoot
				{
					OFFSET -2.568260 -7.056230 0.000000
					CHANNELS 3 Zrotation Yrotation Xrotation
					JOINT RightToeBase
					{
						OFFSET -0.164730 -0.452590 2.363150
						CHANNELS 3 Zrotation Yrotation Xrotation
						End Site
						{
							OFFSET 0.000000 0.000000 0.000000
						}
					}
				}
			}
		}
	}
	JOINT LowerBack
	{
		OFFSET 0.000000 0.000000 0.000000
		CHANNELS 3 Zrotation Yrotation Xrotation
		JOINT Spine
		{
			OFFSET 0.028270 2.035590 -0.193380
			CHANNELS 3 Zrotation Yrotation Xrotation
			JOINT Spine1
			{
				OFFSET 0.056720 2.048850 -0.042750
				CHANNELS 3 Zrotation Yrotation Xrotation
				JOINT Neck
				{
					OFFSET 0.000000 0.000000 0.000000
					CHANNELS 3 Zrotation Yrotation Xrotation
					JOINT Neck1
					{
						OFFSET -0.054170 1.746240 0.172020
						CHANNELS 3 Zrotation Yrotation Xrotation
						JOINT Head
						{
							OFFSET 0.104070 1.761360 -0.123970
							CHANNELS 3 Zrotation Yrotation Xrotation
							End Site
							{
								OFFSET 0.000000 0.000000 0.000000
							}
						}
					}
				}
				JOINT LeftShoulder
				{
					OFFSET 0.000000 0.000000 0.000000
					CHANNELS 3 Zrotation Yrotation Xrotation
					JOINT LeftArm
					{
						OFFSET 3.362410 1.200890 -0.311210
						CHANNELS 3 Zrotation Yrotation Xrotation
						JOINT LeftForeArm
						{
							OFFSET 4.983000 -0.000000 -0.000000
							CHANNELS 3 Zrotation Yrotation Xrotation
							JOINT LeftHand
							{
								OFFSET 3.483560 -0.000000 -0.000000
								CHANNELS 3 Zrotation Yrotation Xrotation
								JOINT LeftFingerBase
								{
									OFFSET 0.000000 0.000000 0.000000
									CHANNELS 3 Zrotation Yrotation Xrotation
									JOINT LeftHandIndex1
									{
										OFFSET 0.715260 -0.000000 -0.000000
										CHANNELS 3 Zrotation Yrotation Xrotation
										End Site
										{
											OFFSET 0.000000 0.000000 0.000000
										}
									}
								}
								JOINT LThumb
								{
									OFFSET 0.000000 0.000000 0.000000
									CHANNELS 3 Zrotation Yrotation Xrotation
									End Site
									{
										OFFSET 0.000000 0.000000 0.000000
									}
								}
							}
						}
					}
				}
				JOINT RightShoulder
				{
					OFFSET 0.000000 0.000000 0.000000
					CHANNELS 3 Zrotation Yrotation Xrotation
					JOINT RightArm
					{
						OFFSET -3.136600 1.374050 -0.404650
						CHANNELS 3 Zrotation Yrotation Xrotation
						JOINT RightForeArm
						{
							OFFSET -5.241900 -0.000000 -0.000000
							CHANNELS 3 Zrotation Yrotation Xrotation
							JOINT RightHand
							{
								OFFSET -3.444170 -0.000000 -0.000000
								CHANNELS 3 Zrotation Yrotation Xrotation
								JOINT RightFingerBase
								{
									OFFSET 0.000000 0.000000 0.000000
									CHANNELS 3 Zrotation Yrotation Xrotation
									JOINT RightHandIndex1
									{
										OFFSET -0.622530 -0.000000 -0.000000
										CHANNELS 3 Zrotation Yrotation Xrotation
										End Site
										{
											OFFSET 0.000000 0.000000 0.000000
										}
									}
								}
								JOINT RThumb
								{
									OFFSET 0.000000 0.000000 0.000000
									CHANNELS 3 Zrotation Yrotation Xrotation
									End Site
									{
										OFFSET 0.000000 0.000000 0.000000
									}
								}
							}
						}
					}
				}
			}
		}
	}
}
MOTION
Frames: 6
Frame Time: 0.008333
-0.039870 18.045623 -6.687468 -6.920980 -5.881861 1.240703 -0.257333 4.281295 2.844830 -6.836703 -8.269116 -29.305279 2.365250 11.455550 34.462692 -0.825903 4.700465 4.258362 0.130200 -2.326300 -6.408300 2.080987 -4.870301 5.132232 28.958748 10.010392 -5.993344 -1.121048 -6.129940 25.089317 -0.114704 -0.953639 -0.794805 -0.144500 -2.449500 6.749600 5.185976 1.662704 4.748459 4.713040 2.776510 4.994749 -1.440442 1.301214 -6.722677 -4.933974 -4.796861 -17.202991 4.314795 -5.593308 16.116324 -0.085200 -2.274100 8.680900 -7.208800 2.878046 -1.353445 -81.080795 6.846745 26.670174 13.406579 -22.634708 -2.784630 -0.411265 -0.888975 -3.615471 27.339969 25.642664 13.240100 -7.125000 0.000000 0.000000 -2.526600 59.363000 -0.886700 11.124397 -1.679435 -2.390327 71.644237 4.461739 22.202006 -12.239809 24.798363 -3.244092 0.935762 -0.194408 1.744695 -16.627175 18.868065 -5.868600 7.125000 0.000000 0.000000 6.907400 -10.291700 5.604200
-0.035831 18.042103 -6.593941 -6.938895 -6.061061 1.298642 -0.319873 4.262495 2.818078 -6.618957 -8.415248 -29.216776 2.066514 11.105169 33.228332 -0.911519 5.031723 4.254242 0.136667 -2.382193 -6.563218 2.102042 -4.892304 5.165805 28.959014 10.184479 -5.498523 -1.083543 -6.056376 24.876389 -0.052464 -1.157078 -0.970086 -0.140805 -2.417974 6.662238 5.245581 1.755360 4.752536 4.655328 2.904708 4.916155 -1.523653 1.362521 -6.763291 -4.879227 -4.781678 -17.021266 4.312106 -5.605553 16.023562 -0.095362 -2.280798 8.620677 -7.202738 2.874343 -1.353100 -81.080999 7.014671 26.651882 13.371383 -22.581292 -2.771951 -0.410226 -0.876913 -3.746734 27.279456 25.059134 12.940542 -7.125000 0.000000 0.000000 -2.375262 58.712783 -0.798299 11.125037 -1.681219 -2.390380 71.603608 4.589888 22.355502 -12.340240 24.941751 -3.290300 0.928307 -0.204393 1.383174 -16.314697 19.196321 -5.854280 7.125000 0.000000 0.000000 7.131953 -9.976032 5.836317
-0.032009 18.036418 -6.500708 -6.961995 -6.199887 1.358844 -0.383225 4.242468 2.790646 -6.387986 -8.585245 -29.129206 1.765020 10.743139 31.967959 -0.985175 5.323574 4.303673 0.146106 -2.461292 -6.782522 2.123695 -4.910936 5.198987 28.972819 10.320969 -5.040848 -1.047529 -5.984276 24.667939 0.021834 -1.396014 -1.137756 -0.133347 -2.351351 6.477764 5.308088 1.836941 4.735473 4.598469 3.015601 4.873283 -1.601828 1.417588 -6.767880 -4.824014 -4.772797 -16.928301 4.316522 -5.618233 15.942754 -0.104348 -2.286041 8.579108 -7.198679 2.872411 -1.352857 -81.082975 7.105714 26.699322 13.296413 -22.468531 -2.744706 -0.414982 -0.855688 -4.054575 27.419516 23.954521 12.486962 -7.125000 0.000000 0.000000 -1.861215 57.528203 -0.608806 11.124084 -1.679383 -2.387863 71.566428 4.779254 22.480573 -12.433631 25.072104 -3.331311 0.922425 -0.220665 1.090202 -16.040113 19.637181 -5.885491 7.125000 0.000000 0.000000 7.336536 -9.536515 6.071701
-0.028778 18.024821 -6.408277 -6.999249 -6.228505 1.425227 -0.448794 4.219095 2.761359 -6.120913 -8.820385 -29.044184 1.455998 10.349308 30.636578 -1.026183 5.507852 4.499283 0.163659 -2.603738 -7.177583 2.146982 -4.920365 5.231099 29.023584 10.354832 -4.684568 -1.015583 -5.916169 24.471711 0.129046 -1.731847 -1.284646 -0.115621 -2.188927 6.028195 5.378517 1.888289 4.660704 4.543939 3.079258 4.927921 -1.666257 1.455619 -6.674134 -4.767532 -4.781120 -17.077625 4.340334 -5.632101 15.894578 -0.110122 -2.287311 8.588462 -7.200086 2.875315 -1.352893 -81.089790 6.986888 26.926191 13.112872 -22.193771 -2.677703 -0.435555 -0.809448 -4.844426 28.107089 21.427496 11.612942 -7.125000 0.000000 0.000000 -0.357073 54.884954 -0.143359 11.118778 -1.667666 -2.378329 71.538663 5.135725 22.528053 -12.507810 25.166874 -3.358136 0.920838 -0.254101 0.984346 -15.868967 20.385417 -6.040986 7.125000 0.000000 0.000000 7.486603 -8.758923 6.316001
-0.025175 18.022227 -6.314702 -7.050685 -6.280458 1.485422 -0.523263 4.196813 2.723395 -5.817591 -9.157476 -28.930367 1.148841 9.923570 29.212910 -1.181689 6.076329 4.826556 0.202050 -2.877093 -7.937938 2.173694 -4.931156 5.267719 29.075478 10.370784 -4.314512 -0.980574 -5.842567 24.259563 0.229366 -2.044531 -1.424233 -0.106192 -2.101370 5.785858 5.449589 1.946137 4.612510 4.515869 3.153554 4.968709 -1.717308 1.497670 -6.606186 -4.746685 -4.818897 -17.263340 4.354459 -5.671617 15.920952 -0.116454 -2.300780 8.627137 -7.203265 2.882842 -1.351721 -81.106820 6.924639 27.302051 12.877854 -21.840517 -2.593486 -0.466403 -0.747899 -6.133142 29.067711 17.903043 10.174387 -7.125000 0.000000 0.000000 1.324607 51.077769 0.058722 11.111722 -1.654164 -2.371679 71.466907 5.411543 22.626402 -12.622067 25.322752 -3.406099 0.919206 -0.275286 0.832552 -15.750858 20.922355 -6.151741 7.125000 0.000000 0.000000 7.592302 -8.202742 6.490451
-0.021253 18.027420 -6.220136 -7.114386 -6.352594 1.540267 -0.605429 4.175474 2.677928 -5.482919 -9.582741 -28.791644 0.843297 9.470235 27.709426 -1.436219 6.977086 5.267701 0.258463 -3.263666 -9.014223 2.203369 -4.943123 5.308238 29.128349 10.371247 -3.932541 -0.942914 -5.764211 24.033647 0.323727 -2.337196 -1.557504 -0.103941 -2.078562 5.722748 5.521218 2.009608 4.587302 4.510684 3.237052 4.997520 -1.756787 1.543200 -6.560548 -4.756657 -4.882147 -17.480527 4.360206 -5.733313 16.011801 -0.123267 -2.324800 8.691172 -7.207976 2.894366 -1.349506 -81.132684 6.911322 27.806770 12.598314 -21.419377 -2.494382 -0.506138 -0.673110 -7.853310 30.264481 13.515949 8.247583 -7.125000 0.000000 0.000000 3.159834 46.263937 0.033027 11.103152 -1.639119 -2.367524 71.357105 5.617608 22.768746 -12.770986 25.531482 -3.472341 0.917534 -0.285876 0.641027 -15.678620 21.276547 -6.223801 7.125000 0.000000 0.000000 7.659628 -7.838052 6.604488
